<svg xmlns="http://www.w3.org/2000/svg" xmlns:xlink="http://www.w3.org/1999/xlink" fill="none" version="1.1" width="14" height="14" viewBox="0 0 14 14"><defs><clipPath id="master_svg0_1_075"><rect x="0" y="0" width="14" height="14" rx="0"/></clipPath></defs><g clip-path="url(#master_svg0_1_075)"><g transform="matrix(1,0,0,-1,0,28.58941650390625)"><g><path d="M1.75,28.288608251953125Q1.01172,28.261308251953125,0.519531,27.769108251953124Q0.0273438,27.276908251953124,0,26.538608251953125L0,18.663628251953124Q0.0273438,17.925348251953125,0.519531,17.433158251953124Q1.01172,16.940978251953126,1.75,16.913628251953124L4.375,16.913628251953124L4.375,14.726132251953125Q4.375,14.452694251953124,4.62109,14.343319351953125Q4.86719,14.233944351953125,5.08594,14.370663151953124L8.44922,16.913628251953124L12.25,16.913628251953124Q12.9883,16.940978251953126,13.4805,17.433158251953124Q13.9727,17.925348251953125,14,18.663628251953124L14,26.538608251953125Q13.9727,27.276908251953124,13.4805,27.769108251953124Q12.9883,28.261308251953125,12.25,28.288608251953125L1.75,28.288608251953125Z" fill="#000000" fill-opacity="1" style="mix-blend-mode:passthrough"/></g></g></g></svg>