<svg xmlns="http://www.w3.org/2000/svg" xmlns:xlink="http://www.w3.org/1999/xlink" fill="none" version="1.1" width="14" height="14" viewBox="0 0 14 14"><defs><clipPath id="master_svg0_1_070"><rect x="0" y="0" width="14" height="14" rx="0"/></clipPath></defs><g clip-path="url(#master_svg0_1_070)"><g transform="matrix(1,0,0,-1,0,26.8515625)"><g><path d="M1.75,25.67578125Q1.01172,25.64848125,0.519531,25.15628125Q0.0273438,24.664081250000002,0,23.92578125L0,15.17578125Q0.0273438,14.43750125,0.519531,13.94531225Q1.01172,13.45312505,1.75,13.42578125L12.25,13.42578125Q12.9883,13.45312505,13.4805,13.94531225Q13.9727,14.43750125,14,15.17578125L14,21.30078125Q13.9727,22.03906125,13.4805,22.53125125Q12.9883,23.023441249999998,12.25,23.05078125L2.1875,23.05078125Q1.77734,23.078121250000002,1.75,23.48828125Q1.77734,23.89848125,2.1875,23.92578125L12.25,23.92578125Q12.6328,23.92578125,12.8789,24.17188125Q13.125,24.41798125,13.125,24.80078125Q13.125,25.18358125,12.8789,25.42968125Q12.6328,25.67578125,12.25,25.67578125L1.75,25.67578125ZM11.375,19.11328125Q11.7578,19.11328125,12.0039,18.86719125Q12.25,18.62109125,12.25,18.23828125Q12.25,17.85547125,12.0039,17.60937125Q11.7578,17.36328125,11.375,17.36328125Q10.9922,17.36328125,10.7461,17.60937125Q10.5,17.85547125,10.5,18.23828125Q10.5,18.62109125,10.7461,18.86719125Q10.9922,19.11328125,11.375,19.11328125Z" fill="#000000" fill-opacity="1" style="mix-blend-mode:passthrough"/></g></g></g></svg>